<svg height="200" width="200" xmlns="http://www.w3.org/2000/svg"><path d="m40 80a60 60 0 0 1 120 0" fill="none" stroke="#ffd700" stroke-width="8"/><g stroke-width="2"><rect fill="#ffd700" height="80" rx="10" stroke="#e0b800" width="130" x="35" y="80"/><rect fill="#2b2d42" height="50" rx="6" stroke="#111" width="70" x="65" y="95"/><g stroke="#c0c0c0"><path d="m70 90v5"/><path d="m75 90v5"/><path d="m80 90v5"/><path d="m85 90v5"/><path d="m90 90v5"/><path d="m95 90v5"/><path d="m100 90v5"/><path d="m105 90v5"/><path d="m110 90v5"/><path d="m115 90v5"/><path d="m120 90v5"/><path d="m125 90v5"/><path d="m70 145v5"/><path d="m75 145v5"/><path d="m80 145v5"/><path d="m85 145v5"/><path d="m90 145v5"/><path d="m95 145v5"/><path d="m100 145v5"/><path d="m105 145v5"/><path d="m110 145v5"/><path d="m115 145v5"/><path d="m120 145v5"/><path d="m125 145v5"/></g></g><path d="m80 105h40v30h-40z" fill="#3a86ff"/></svg>