<?xml version="1.0" encoding="UTF-8" standalone="no"?>
<!DOCTYPE svg PUBLIC "-//W3C//DTD SVG 1.1//EN" "http://www.w3.org/Graphics/SVG/1.1/DTD/svg11.dtd">
<svg xmlns="http://www.w3.org/2000/svg" version="1.1" viewBox="0.00 0.00 150.00 150.00">
<g stroke-width="2.00" fill="none" stroke-linecap="butt">
<path stroke="#f3f3f3" vector-effect="non-scaling-stroke" d="
  M 73.52 112.64
  Q 78.25 112.64 78.45 112.68
  A 0.73 0.71 6.4 0 1 79.02 113.38
  L 79.03 123.80
  A 1.11 1.11 0.0 0 0 80.14 124.91
  L 80.65 124.91
  A 1.98 1.98 0.0 0 0 82.63 122.93
  L 82.63 113.18
  A 0.53 0.53 0.0 0 1 83.16 112.65
  L 92.79 112.65
  A 0.40 0.40 0.0 0 1 93.19 113.05
  L 93.19 123.55
  A 1.39 1.38 0.0 0 0 94.58 124.93
  L 95.00 124.93
  A 1.85 1.84 0.0 0 0 96.85 123.09
  L 96.85 113.24
  A 0.55 0.55 0.0 0 1 97.38 112.69
  C 99.56 112.62 103.27 113.08 105.78 112.28
  Q 112.23 110.24 112.59 103.23
  Q 112.79 99.29 112.67 98.58
  A 0.51 0.51 0.0 0 1 113.17 97.99
  L 123.38 97.99
  A 1.33 1.33 0.0 0 0 124.71 96.66
  L 124.71 96.12
  A 1.73 1.73 0.0 0 0 122.98 94.39
  L 113.22 94.39
  A 0.57 0.56 0.0 0 1 112.65 93.83
  L 112.65 84.58
  A 0.59 0.58 -0.5 0 1 113.23 84.00
  L 123.06 83.98
  A 1.62 1.62 0.0 0 0 124.68 82.34
  L 124.69 82.13
  A 1.68 1.67 1.1 0 0 123.01 80.39
  L 113.09 80.40
  A 0.40 0.39 90.0 0 1 112.70 80.00
  L 112.70 70.56
  A 0.61 0.61 0.0 0 1 113.31 69.95
  L 123.19 69.95
  A 1.44 1.44 0.0 0 0 124.63 68.51
  L 124.63 68.10
  A 1.95 1.94 90.0 0 0 122.69 66.15
  L 113.21 66.15
  A 0.53 0.53 0.0 0 1 112.68 65.62
  L 112.68 56.29
  A 0.44 0.43 90.0 0 1 113.11 55.85
  L 123.42 55.85
  A 1.33 1.33 0.0 0 0 124.75 54.52
  L 124.75 54.12
  A 1.94 1.93 -0.0 0 0 122.81 52.19
  L 113.25 52.19
  A 0.62 0.62 0.0 0 1 112.63 51.54
  Q 112.73 49.29 112.61 47.02
  C 112.36 42.60 109.59 39.12 105.21 38.14
  A 1.95 0.65 25.2 0 0 105.00 38.11
  L 97.47 37.96
  A 0.59 0.59 0.0 0 1 96.89 37.37
  L 96.88 27.25
  A 1.72 1.72 0.0 0 0 95.11 25.53
  L 95.04 25.53
  A 1.83 1.82 -89.8 0 0 93.22 27.35
  L 93.17 37.49
  A 0.52 0.52 0.0 0 1 92.65 38.01
  L 83.18 38.01
  A 0.54 0.54 0.0 0 1 82.64 37.47
  C 82.65 32.48 83.37 28.45 81.69 25.67
  A 0.71 0.70 -22.6 0 0 80.91 25.35
  Q 78.97 25.88 78.92 28.00
  Q 78.83 32.68 78.92 37.20
  A 0.69 0.68 88.5 0 1 78.26 37.90
  Q 75.92 38.00 73.54 38.00
  Q 71.15 38.00 68.81 37.89
  A 0.69 0.68 -88.5 0 1 68.16 37.20
  Q 68.25 32.68 68.16 28.00
  Q 68.11 25.88 66.17 25.35
  A 0.71 0.70 22.6 0 0 65.39 25.66
  C 63.71 28.44 64.43 32.47 64.44 37.46
  A 0.54 0.54 0.0 0 1 63.90 38.00
  L 54.43 38.00
  A 0.52 0.52 0.0 0 1 53.91 37.48
  L 53.86 27.34
  A 1.83 1.82 89.9 0 0 52.04 25.52
  L 51.97 25.52
  A 1.72 1.72 0.0 0 0 50.20 27.24
  L 50.19 37.36
  A 0.59 0.59 0.0 0 1 49.61 37.95
  L 42.08 38.09
  A 1.95 0.65 -25.2 0 0 41.87 38.12
  C 37.49 39.10 34.71 42.58 34.46 47.00
  Q 34.34 49.27 34.44 51.52
  A 0.62 0.62 0.0 0 1 33.82 52.17
  L 24.26 52.16
  A 1.94 1.93 0.0 0 0 22.32 54.09
  L 22.32 54.49
  A 1.33 1.33 0.0 0 0 23.65 55.82
  L 33.96 55.83
  A 0.44 0.43 -90.0 0 1 34.39 56.27
  L 34.38 65.60
  A 0.53 0.53 0.0 0 1 33.85 66.13
  L 24.37 66.12
  A 1.95 1.94 -90.0 0 0 22.43 68.07
  L 22.43 68.48
  A 1.44 1.44 0.0 0 0 23.87 69.92
  L 33.75 69.93
  A 0.61 0.61 0.0 0 1 34.36 70.54
  L 34.35 79.98
  A 0.40 0.39 -90.0 0 1 33.96 80.38
  L 24.04 80.36
  A 1.68 1.67 -1.1 0 0 22.36 82.10
  L 22.37 82.31
  A 1.62 1.62 0.0 0 0 23.99 83.95
  L 33.82 83.98
  A 0.59 0.58 0.5 0 1 34.40 84.56
  L 34.39 93.81
  A 0.57 0.56 0.0 0 1 33.82 94.37
  L 24.06 94.36
  A 1.73 1.73 0.0 0 0 22.33 96.09
  L 22.33 96.63
  A 1.33 1.33 0.0 0 0 23.66 97.96
  L 33.87 97.97
  A 0.51 0.51 0.0 0 1 34.37 98.56
  Q 34.25 99.27 34.45 103.21
  Q 34.80 110.22 41.25 112.26
  C 43.76 113.06 47.47 112.60 49.65 112.68
  A 0.55 0.55 0.0 0 1 50.18 113.23
  L 50.17 123.08
  A 1.85 1.84 0.0 0 0 52.02 124.92
  L 52.44 124.92
  A 1.39 1.38 0.0 0 0 53.83 123.54
  L 53.84 113.04
  A 0.40 0.40 0.0 0 1 54.24 112.64
  L 63.87 112.64
  A 0.53 0.53 0.0 0 1 64.40 113.17
  L 64.39 122.92
  A 1.98 1.98 0.0 0 0 66.37 124.91
  L 66.88 124.91
  A 1.11 1.11 0.0 0 0 67.99 123.80
  L 68.01 113.38
  A 0.73 0.71 -6.3 0 1 68.58 112.68
  Q 68.78 112.64 73.52 112.64"
/>
<path stroke="#f3f3f3" vector-effect="non-scaling-stroke" d="
  M 109.2184 47.5522
  A 6.12 6.12 0.0 0 0 103.1091 41.4215
  L 44.1492 41.3186
  A 6.12 6.12 0.0 0 0 38.0185 47.4279
  L 37.9216 102.9478
  A 6.12 6.12 0.0 0 0 44.0309 109.0785
  L 102.9908 109.1814
  A 6.12 6.12 0.0 0 0 109.1215 103.0721
  L 109.2184 47.5522"
/>
<path stroke="#aecdff" vector-effect="non-scaling-stroke" d="
  M 73.70 101.84
  Q 78.83 101.83 83.93 101.76
  Q 89.12 101.69 90.84 100.75
  Q 94.00 99.02 95.17 95.26
  A 3.19 3.12 -36.8 0 0 95.32 94.30
  Q 95.31 76.12 95.32 76.00
  Q 95.54 70.79 94.46 69.16
  Q 92.47 66.15 88.34 66.33
  A 0.50 0.50 0.0 0 1 87.82 65.82
  Q 87.89 60.22 87.69 59.29
  C 86.25 52.31 80.98 47.11 73.56 47.13
  C 66.14 47.15 60.89 52.37 59.48 59.36
  Q 59.29 60.30 59.39 65.89
  A 0.50 0.50 0.0 0 1 58.88 66.41
  Q 54.75 66.25 52.77 69.27
  Q 51.70 70.91 51.95 76.11
  Q 51.96 76.23 52.04 94.41
  A 3.19 3.12 36.5 0 0 52.20 95.37
  Q 53.39 99.13 56.56 100.84
  Q 58.28 101.77 63.47 101.82
  Q 68.57 101.86 73.70 101.84"
/>
<path stroke="#aecdff" vector-effect="non-scaling-stroke" d="
  M 63.80 66.63
  L 83.36 66.63
  A 0.69 0.69 0.0 0 0 84.05 65.94
  L 84.05 61.16
  A 10.43 10.27 90.0 0 0 73.78 50.73
  L 73.38 50.73
  A 10.43 10.27 90.0 0 0 63.11 61.16
  L 63.11 65.94
  A 0.69 0.69 0.0 0 0 63.80 66.63"
/>
<path stroke="#aecdff" vector-effect="non-scaling-stroke" d="
  M 88.90 69.98
  L 58.32 69.98
  A 2.97 2.97 0.0 0 0 55.35 72.95
  L 55.35 92.22
  A 6.16 6.14 90.0 0 0 61.49 98.38
  L 85.73 98.38
  A 6.16 6.14 -90.0 0 0 91.87 92.22
  L 91.87 72.95
  A 2.97 2.97 0.0 0 0 88.90 69.98"
/>
<path stroke="#aecdff" vector-effect="non-scaling-stroke" d="
  M 85.97 74.44
  A 0.34 0.34 0.0 0 0 85.63 74.10
  L 82.51 74.10
  A 0.34 0.34 0.0 0 0 82.17 74.44
  L 82.17 92.92
  A 0.34 0.34 0.0 0 0 82.51 93.26
  L 85.63 93.26
  A 0.34 0.34 0.0 0 0 85.97 92.92
  L 85.97 74.44"
/>
<path stroke="#aecdff" vector-effect="non-scaling-stroke" d="
  M 70.59 88.99
  Q 72.63 88.99 73.89 89.01
  A 0.64 0.63 79.2 0 1 74.47 89.41
  L 75.48 92.04
  A 2.03 2.01 79.4 0 0 77.36 93.34
  L 78.63 93.34
  A 1.11 1.11 0.0 0 0 79.66 91.83
  L 73.38 75.47
  A 2.06 2.05 -10.2 0 0 71.48 74.16
  Q 70.61 74.15 70.59 74.15
  Q 70.58 74.15 69.71 74.16
  A 2.06 2.05 10.2 0 0 67.81 75.47
  L 61.51 91.82
  A 1.11 1.11 0.0 0 0 62.54 93.33
  L 63.81 93.33
  A 2.03 2.01 -79.3 0 0 65.69 92.04
  L 66.71 89.41
  A 0.64 0.63 -79.1 0 1 67.29 89.00
  Q 68.55 88.99 70.59 88.99"
/>
<path stroke="#aecdff" vector-effect="non-scaling-stroke" d="
  M 70.59 85.84
  Q 72.41 85.86 72.58 85.79
  A 0.78 0.77 -19.6 0 0 73.05 84.82
  L 70.97 78.67
  A 0.26 0.06 9.8 0 0 70.77 78.58
  Q 70.67 78.56 70.66 78.56
  Q 70.65 78.56 70.55 78.58
  A 0.26 0.06 -8.7 0 0 70.34 78.66
  L 68.15 84.77
  A 0.78 0.77 20.7 0 0 68.59 85.75
  Q 68.77 85.82 70.59 85.84"
/>
</g>
<path fill="#ffffff" d="
  M 150.00 0.00
  L 150.00 150.00
  L 0.00 150.00
  L 0.00 0.00
  L 150.00 0.00
  Z
  M 73.52 112.64
  Q 78.25 112.64 78.45 112.68
  A 0.73 0.71 6.4 0 1 79.02 113.38
  L 79.03 123.80
  A 1.11 1.11 0.0 0 0 80.14 124.91
  L 80.65 124.91
  A 1.98 1.98 0.0 0 0 82.63 122.93
  L 82.63 113.18
  A 0.53 0.53 0.0 0 1 83.16 112.65
  L 92.79 112.65
  A 0.40 0.40 0.0 0 1 93.19 113.05
  L 93.19 123.55
  A 1.39 1.38 0.0 0 0 94.58 124.93
  L 95.00 124.93
  A 1.85 1.84 0.0 0 0 96.85 123.09
  L 96.85 113.24
  A 0.55 0.55 0.0 0 1 97.38 112.69
  C 99.56 112.62 103.27 113.08 105.78 112.28
  Q 112.23 110.24 112.59 103.23
  Q 112.79 99.29 112.67 98.58
  A 0.51 0.51 0.0 0 1 113.17 97.99
  L 123.38 97.99
  A 1.33 1.33 0.0 0 0 124.71 96.66
  L 124.71 96.12
  A 1.73 1.73 0.0 0 0 122.98 94.39
  L 113.22 94.39
  A 0.57 0.56 0.0 0 1 112.65 93.83
  L 112.65 84.58
  A 0.59 0.58 -0.5 0 1 113.23 84.00
  L 123.06 83.98
  A 1.62 1.62 0.0 0 0 124.68 82.34
  L 124.69 82.13
  A 1.68 1.67 1.1 0 0 123.01 80.39
  L 113.09 80.40
  A 0.40 0.39 90.0 0 1 112.70 80.00
  L 112.70 70.56
  A 0.61 0.61 0.0 0 1 113.31 69.95
  L 123.19 69.95
  A 1.44 1.44 0.0 0 0 124.63 68.51
  L 124.63 68.10
  A 1.95 1.94 90.0 0 0 122.69 66.15
  L 113.21 66.15
  A 0.53 0.53 0.0 0 1 112.68 65.62
  L 112.68 56.29
  A 0.44 0.43 90.0 0 1 113.11 55.85
  L 123.42 55.85
  A 1.33 1.33 0.0 0 0 124.75 54.52
  L 124.75 54.12
  A 1.94 1.93 -0.0 0 0 122.81 52.19
  L 113.25 52.19
  A 0.62 0.62 0.0 0 1 112.63 51.54
  Q 112.73 49.29 112.61 47.02
  C 112.36 42.60 109.59 39.12 105.21 38.14
  A 1.95 0.65 25.2 0 0 105.00 38.11
  L 97.47 37.96
  A 0.59 0.59 0.0 0 1 96.89 37.37
  L 96.88 27.25
  A 1.72 1.72 0.0 0 0 95.11 25.53
  L 95.04 25.53
  A 1.83 1.82 -89.8 0 0 93.22 27.35
  L 93.17 37.49
  A 0.52 0.52 0.0 0 1 92.65 38.01
  L 83.18 38.01
  A 0.54 0.54 0.0 0 1 82.64 37.47
  C 82.65 32.48 83.37 28.45 81.69 25.67
  A 0.71 0.70 -22.6 0 0 80.91 25.35
  Q 78.97 25.88 78.92 28.00
  Q 78.83 32.68 78.92 37.20
  A 0.69 0.68 88.5 0 1 78.26 37.90
  Q 75.92 38.00 73.54 38.00
  Q 71.15 38.00 68.81 37.89
  A 0.69 0.68 -88.5 0 1 68.16 37.20
  Q 68.25 32.68 68.16 28.00
  Q 68.11 25.88 66.17 25.35
  A 0.71 0.70 22.6 0 0 65.39 25.66
  C 63.71 28.44 64.43 32.47 64.44 37.46
  A 0.54 0.54 0.0 0 1 63.90 38.00
  L 54.43 38.00
  A 0.52 0.52 0.0 0 1 53.91 37.48
  L 53.86 27.34
  A 1.83 1.82 89.9 0 0 52.04 25.52
  L 51.97 25.52
  A 1.72 1.72 0.0 0 0 50.20 27.24
  L 50.19 37.36
  A 0.59 0.59 0.0 0 1 49.61 37.95
  L 42.08 38.09
  A 1.95 0.65 -25.2 0 0 41.87 38.12
  C 37.49 39.10 34.71 42.58 34.46 47.00
  Q 34.34 49.27 34.44 51.52
  A 0.62 0.62 0.0 0 1 33.82 52.17
  L 24.26 52.16
  A 1.94 1.93 0.0 0 0 22.32 54.09
  L 22.32 54.49
  A 1.33 1.33 0.0 0 0 23.65 55.82
  L 33.96 55.83
  A 0.44 0.43 -90.0 0 1 34.39 56.27
  L 34.38 65.60
  A 0.53 0.53 0.0 0 1 33.85 66.13
  L 24.37 66.12
  A 1.95 1.94 -90.0 0 0 22.43 68.07
  L 22.43 68.48
  A 1.44 1.44 0.0 0 0 23.87 69.92
  L 33.75 69.93
  A 0.61 0.61 0.0 0 1 34.36 70.54
  L 34.35 79.98
  A 0.40 0.39 -90.0 0 1 33.96 80.38
  L 24.04 80.36
  A 1.68 1.67 -1.1 0 0 22.36 82.10
  L 22.37 82.31
  A 1.62 1.62 0.0 0 0 23.99 83.95
  L 33.82 83.98
  A 0.59 0.58 0.5 0 1 34.40 84.56
  L 34.39 93.81
  A 0.57 0.56 0.0 0 1 33.82 94.37
  L 24.06 94.36
  A 1.73 1.73 0.0 0 0 22.33 96.09
  L 22.33 96.63
  A 1.33 1.33 0.0 0 0 23.66 97.96
  L 33.87 97.97
  A 0.51 0.51 0.0 0 1 34.37 98.56
  Q 34.25 99.27 34.45 103.21
  Q 34.80 110.22 41.25 112.26
  C 43.76 113.06 47.47 112.60 49.65 112.68
  A 0.55 0.55 0.0 0 1 50.18 113.23
  L 50.17 123.08
  A 1.85 1.84 0.0 0 0 52.02 124.92
  L 52.44 124.92
  A 1.39 1.38 0.0 0 0 53.83 123.54
  L 53.84 113.04
  A 0.40 0.40 0.0 0 1 54.24 112.64
  L 63.87 112.64
  A 0.53 0.53 0.0 0 1 64.40 113.17
  L 64.39 122.92
  A 1.98 1.98 0.0 0 0 66.37 124.91
  L 66.88 124.91
  A 1.11 1.11 0.0 0 0 67.99 123.80
  L 68.01 113.38
  A 0.73 0.71 -6.3 0 1 68.58 112.68
  Q 68.78 112.64 73.52 112.64
  Z"
/>
<path fill="#e6e6e6" d="
  M 73.54 38.00
  Q 75.92 38.00 78.26 37.90
  A 0.69 0.68 88.5 0 0 78.92 37.20
  Q 78.83 32.68 78.92 28.00
  Q 78.97 25.88 80.91 25.35
  A 0.71 0.70 -22.6 0 1 81.69 25.67
  C 83.37 28.45 82.65 32.48 82.64 37.47
  A 0.54 0.54 0.0 0 0 83.18 38.01
  L 92.65 38.01
  A 0.52 0.52 0.0 0 0 93.17 37.49
  L 93.22 27.35
  A 1.83 1.82 -89.8 0 1 95.04 25.53
  L 95.11 25.53
  A 1.72 1.72 0.0 0 1 96.88 27.25
  L 96.89 37.37
  A 0.59 0.59 0.0 0 0 97.47 37.96
  L 105.00 38.11
  A 1.95 0.65 25.2 0 1 105.21 38.14
  C 109.59 39.12 112.36 42.60 112.61 47.02
  Q 112.73 49.29 112.63 51.54
  A 0.62 0.62 0.0 0 0 113.25 52.19
  L 122.81 52.19
  A 1.94 1.93 -0.0 0 1 124.75 54.12
  L 124.75 54.52
  A 1.33 1.33 0.0 0 1 123.42 55.85
  L 113.11 55.85
  A 0.44 0.43 90.0 0 0 112.68 56.29
  L 112.68 65.62
  A 0.53 0.53 0.0 0 0 113.21 66.15
  L 122.69 66.15
  A 1.95 1.94 -90.0 0 1 124.63 68.10
  L 124.63 68.51
  A 1.44 1.44 0.0 0 1 123.19 69.95
  L 113.31 69.95
  A 0.61 0.61 0.0 0 0 112.70 70.56
  L 112.70 80.00
  A 0.40 0.39 -90.0 0 0 113.09 80.40
  L 123.01 80.39
  A 1.68 1.67 1.1 0 1 124.69 82.13
  L 124.68 82.34
  A 1.62 1.62 0.0 0 1 123.06 83.98
  L 113.23 84.00
  A 0.59 0.58 -0.5 0 0 112.65 84.58
  L 112.65 93.83
  A 0.57 0.56 0.0 0 0 113.22 94.39
  L 122.98 94.39
  A 1.73 1.73 0.0 0 1 124.71 96.12
  L 124.71 96.66
  A 1.33 1.33 0.0 0 1 123.38 97.99
  L 113.17 97.99
  A 0.51 0.51 0.0 0 0 112.67 98.58
  Q 112.79 99.29 112.59 103.23
  Q 112.23 110.24 105.78 112.28
  C 103.27 113.08 99.56 112.62 97.38 112.69
  A 0.55 0.55 0.0 0 0 96.85 113.24
  L 96.85 123.09
  A 1.85 1.84 -0.0 0 1 95.00 124.93
  L 94.58 124.93
  A 1.39 1.38 0.0 0 1 93.19 123.55
  L 93.19 113.05
  A 0.40 0.40 0.0 0 0 92.79 112.65
  L 83.16 112.65
  A 0.53 0.53 0.0 0 0 82.63 113.18
  L 82.63 122.93
  A 1.98 1.98 0.0 0 1 80.65 124.91
  L 80.14 124.91
  A 1.11 1.11 0.0 0 1 79.03 123.80
  L 79.02 113.38
  A 0.73 0.71 6.4 0 0 78.45 112.68
  Q 78.25 112.64 73.52 112.64
  Q 68.78 112.64 68.58 112.68
  A 0.73 0.71 -6.3 0 0 68.01 113.38
  L 67.99 123.80
  A 1.11 1.11 0.0 0 1 66.88 124.91
  L 66.37 124.91
  A 1.98 1.98 0.0 0 1 64.39 122.92
  L 64.40 113.17
  A 0.53 0.53 0.0 0 0 63.87 112.64
  L 54.24 112.64
  A 0.40 0.40 0.0 0 0 53.84 113.04
  L 53.83 123.54
  A 1.39 1.38 0.0 0 1 52.44 124.92
  L 52.02 124.92
  A 1.85 1.84 0.0 0 1 50.17 123.08
  L 50.18 113.23
  A 0.55 0.55 0.0 0 0 49.65 112.68
  C 47.47 112.60 43.76 113.06 41.25 112.26
  Q 34.80 110.22 34.45 103.21
  Q 34.25 99.27 34.37 98.56
  A 0.51 0.51 0.0 0 0 33.87 97.97
  L 23.66 97.96
  A 1.33 1.33 0.0 0 1 22.33 96.63
  L 22.33 96.09
  A 1.73 1.73 0.0 0 1 24.06 94.36
  L 33.82 94.37
  A 0.57 0.56 0.0 0 0 34.39 93.81
  L 34.40 84.56
  A 0.59 0.58 0.5 0 0 33.82 83.98
  L 23.99 83.95
  A 1.62 1.62 0.0 0 1 22.37 82.31
  L 22.36 82.10
  A 1.68 1.67 -1.1 0 1 24.04 80.36
  L 33.96 80.38
  A 0.40 0.39 -90.0 0 0 34.35 79.98
  L 34.36 70.54
  A 0.61 0.61 0.0 0 0 33.75 69.93
  L 23.87 69.92
  A 1.44 1.44 0.0 0 1 22.43 68.48
  L 22.43 68.07
  A 1.95 1.94 -90.0 0 1 24.37 66.12
  L 33.85 66.13
  A 0.53 0.53 0.0 0 0 34.38 65.60
  L 34.39 56.27
  A 0.44 0.43 -90.0 0 0 33.96 55.83
  L 23.65 55.82
  A 1.33 1.33 0.0 0 1 22.32 54.49
  L 22.32 54.09
  A 1.94 1.93 0.0 0 1 24.26 52.16
  L 33.82 52.17
  A 0.62 0.62 0.0 0 0 34.44 51.52
  Q 34.34 49.27 34.46 47.00
  C 34.71 42.58 37.49 39.10 41.87 38.12
  A 1.95 0.65 -25.2 0 1 42.08 38.09
  L 49.61 37.95
  A 0.59 0.59 0.0 0 0 50.19 37.36
  L 50.20 27.24
  A 1.72 1.72 0.0 0 1 51.97 25.52
  L 52.04 25.52
  A 1.83 1.82 89.9 0 1 53.86 27.34
  L 53.91 37.48
  A 0.52 0.52 0.0 0 0 54.43 38.00
  L 63.90 38.00
  A 0.54 0.54 0.0 0 0 64.44 37.46
  C 64.43 32.47 63.71 28.44 65.39 25.66
  A 0.71 0.70 22.6 0 1 66.17 25.35
  Q 68.11 25.88 68.16 28.00
  Q 68.25 32.68 68.16 37.20
  A 0.69 0.68 -88.5 0 0 68.81 37.89
  Q 71.15 38.00 73.54 38.00
  Z
  M 109.2184 47.5522
  A 6.12 6.12 0.0 0 0 103.1091 41.4215
  L 44.1492 41.3186
  A 6.12 6.12 0.0 0 0 38.0185 47.4279
  L 37.9216 102.9478
  A 6.12 6.12 0.0 0 0 44.0309 109.0785
  L 102.9908 109.1814
  A 6.12 6.12 0.0 0 0 109.1215 103.0721
  L 109.2184 47.5522
  Z"
/>
<path fill="#ffffff" d="
  M 109.1215 103.0721
  A 6.12 6.12 0.0 0 1 102.9908 109.1814
  L 44.0309 109.0785
  A 6.12 6.12 0.0 0 1 37.9216 102.9478
  L 38.0185 47.4279
  A 6.12 6.12 0.0 0 1 44.1492 41.3186
  L 103.1091 41.4215
  A 6.12 6.12 0.0 0 1 109.2184 47.5522
  L 109.1215 103.0721
  Z
  M 73.70 101.84
  Q 78.83 101.83 83.93 101.76
  Q 89.12 101.69 90.84 100.75
  Q 94.00 99.02 95.17 95.26
  A 3.19 3.12 -36.8 0 0 95.32 94.30
  Q 95.31 76.12 95.32 76.00
  Q 95.54 70.79 94.46 69.16
  Q 92.47 66.15 88.34 66.33
  A 0.50 0.50 0.0 0 1 87.82 65.82
  Q 87.89 60.22 87.69 59.29
  C 86.25 52.31 80.98 47.11 73.56 47.13
  C 66.14 47.15 60.89 52.37 59.48 59.36
  Q 59.29 60.30 59.39 65.89
  A 0.50 0.50 0.0 0 1 58.88 66.41
  Q 54.75 66.25 52.77 69.27
  Q 51.70 70.91 51.95 76.11
  Q 51.96 76.23 52.04 94.41
  A 3.19 3.12 36.5 0 0 52.20 95.37
  Q 53.39 99.13 56.56 100.84
  Q 58.28 101.77 63.47 101.82
  Q 68.57 101.86 73.70 101.84
  Z"
/>
<path fill="#5c9aff" d="
  M 73.56 47.13
  C 80.98 47.11 86.25 52.31 87.69 59.29
  Q 87.89 60.22 87.82 65.82
  A 0.50 0.50 0.0 0 0 88.34 66.33
  Q 92.47 66.15 94.46 69.16
  Q 95.54 70.79 95.32 76.00
  Q 95.31 76.12 95.32 94.30
  A 3.19 3.12 -36.8 0 1 95.17 95.26
  Q 94.00 99.02 90.84 100.75
  Q 89.12 101.69 83.93 101.76
  Q 78.83 101.83 73.70 101.84
  Q 68.57 101.86 63.47 101.82
  Q 58.28 101.77 56.56 100.84
  Q 53.39 99.13 52.20 95.37
  A 3.19 3.12 36.5 0 1 52.04 94.41
  Q 51.96 76.23 51.95 76.11
  Q 51.70 70.91 52.77 69.27
  Q 54.75 66.25 58.88 66.41
  A 0.50 0.50 0.0 0 0 59.39 65.89
  Q 59.29 60.30 59.48 59.36
  C 60.89 52.37 66.14 47.15 73.56 47.13
  Z
  M 63.80 66.63
  L 83.36 66.63
  A 0.69 0.69 0.0 0 0 84.05 65.94
  L 84.05 61.16
  A 10.43 10.27 90.0 0 0 73.78 50.73
  L 73.38 50.73
  A 10.43 10.27 90.0 0 0 63.11 61.16
  L 63.11 65.94
  A 0.69 0.69 0.0 0 0 63.80 66.63
  Z
  M 88.90 69.98
  L 58.32 69.98
  A 2.97 2.97 0.0 0 0 55.35 72.95
  L 55.35 92.22
  A 6.16 6.14 90.0 0 0 61.49 98.38
  L 85.73 98.38
  A 6.16 6.14 -90.0 0 0 91.87 92.22
  L 91.87 72.95
  A 2.97 2.97 0.0 0 0 88.90 69.98
  Z"
/>
<g>
<path fill="#ffffff" d="
  M 63.80 66.63
  A 0.69 0.69 0.0 0 1 63.11 65.94
  L 63.11 61.16
  A 10.43 10.27 90.0 0 1 73.38 50.73
  L 73.78 50.73
  A 10.43 10.27 90.0 0 1 84.05 61.16
  L 84.05 65.94
  A 0.69 0.69 0.0 0 1 83.36 66.63
  L 63.80 66.63
  Z"
/>
<path fill="#ffffff" d="
  M 88.90 69.98
  A 2.97 2.97 0.0 0 1 91.87 72.95
  L 91.87 92.22
  A 6.16 6.14 -90.0 0 1 85.73 98.38
  L 61.49 98.38
  A 6.16 6.14 -90.0 0 1 55.35 92.22
  L 55.35 72.95
  A 2.97 2.97 0.0 0 1 58.32 69.98
  L 88.90 69.98
  Z
  M 85.97 74.44
  A 0.34 0.34 0.0 0 0 85.63 74.10
  L 82.51 74.10
  A 0.34 0.34 0.0 0 0 82.17 74.44
  L 82.17 92.92
  A 0.34 0.34 0.0 0 0 82.51 93.26
  L 85.63 93.26
  A 0.34 0.34 0.0 0 0 85.97 92.92
  L 85.97 74.44
  Z
  M 70.59 88.99
  Q 72.63 88.99 73.89 89.01
  A 0.64 0.63 79.2 0 1 74.47 89.41
  L 75.48 92.04
  A 2.03 2.01 79.4 0 0 77.36 93.34
  L 78.63 93.34
  A 1.11 1.11 0.0 0 0 79.66 91.83
  L 73.38 75.47
  A 2.06 2.05 -10.2 0 0 71.48 74.16
  Q 70.61 74.15 70.59 74.15
  Q 70.58 74.15 69.71 74.16
  A 2.06 2.05 10.2 0 0 67.81 75.47
  L 61.51 91.82
  A 1.11 1.11 0.0 0 0 62.54 93.33
  L 63.81 93.33
  A 2.03 2.01 -79.3 0 0 65.69 92.04
  L 66.71 89.41
  A 0.64 0.63 -79.1 0 1 67.29 89.00
  Q 68.55 88.99 70.59 88.99
  Z"
/>
</g>
<g>
<rect fill="#5c9aff" x="82.17" y="74.10" width="3.80" height="19.16" rx="0.34"/>
<path fill="#5c9aff" d="
  M 70.59 74.15
  Q 70.61 74.15 71.48 74.16
  A 2.06 2.05 -10.2 0 1 73.38 75.47
  L 79.66 91.83
  A 1.11 1.11 0.0 0 1 78.63 93.34
  L 77.36 93.34
  A 2.03 2.01 79.4 0 1 75.48 92.04
  L 74.47 89.41
  A 0.64 0.63 79.2 0 0 73.89 89.01
  Q 72.63 88.99 70.59 88.99
  Q 68.55 88.99 67.29 89.00
  A 0.64 0.63 -79.1 0 0 66.71 89.41
  L 65.69 92.04
  A 2.03 2.01 -79.3 0 1 63.81 93.33
  L 62.54 93.33
  A 1.11 1.11 0.0 0 1 61.51 91.82
  L 67.81 75.47
  A 2.06 2.05 10.2 0 1 69.71 74.16
  Q 70.58 74.15 70.59 74.15
  Z
  M 70.59 85.84
  Q 72.41 85.86 72.58 85.79
  A 0.78 0.77 -19.6 0 0 73.05 84.82
  L 70.97 78.67
  A 0.26 0.06 9.8 0 0 70.77 78.58
  Q 70.67 78.56 70.66 78.56
  Q 70.65 78.56 70.55 78.58
  A 0.26 0.06 -8.7 0 0 70.34 78.66
  L 68.15 84.77
  A 0.78 0.77 20.7 0 0 68.59 85.75
  Q 68.77 85.82 70.59 85.84
  Z"
/>
</g>
<path fill="#ffffff" d="
  M 70.66 78.56
  Q 70.67 78.56 70.77 78.58
  A 0.26 0.06 9.8 0 1 70.97 78.67
  L 73.05 84.82
  A 0.78 0.77 -19.6 0 1 72.58 85.79
  Q 72.41 85.86 70.59 85.84
  Q 68.77 85.82 68.59 85.75
  A 0.78 0.77 20.7 0 1 68.15 84.77
  L 70.34 78.66
  A 0.26 0.06 -8.7 0 1 70.55 78.58
  Q 70.65 78.56 70.66 78.56
  Z"
/>
</svg>
