<?xml version="1.0" encoding="UTF-8" standalone="no"?>
<!DOCTYPE svg PUBLIC "-//W3C//DTD SVG 1.1//EN" "http://www.w3.org/Graphics/SVG/1.1/DTD/svg11.dtd">
<svg xmlns="http://www.w3.org/2000/svg" version="1.1" viewBox="0.00 0.00 1024.00 1024.00">
<g stroke-width="2.00" fill="none" stroke-linecap="butt">
<path stroke="#98b4dc" vector-effect="non-scaling-stroke" d="
  M 240.97 297.91
  C 235.86 309.70 235.82 319.17 235.93 333.94
  Q 235.95 335.93 235.99 356.80
  A 0.63 0.63 0.0 0 1 235.35 357.43
  Q 202.13 357.41 166.70 357.40
  Q 160.84 357.40 158.54 358.63
  C 149.91 363.27 149.97 376.35 159.08 380.45
  Q 161.07 381.34 166.07 381.34
  Q 219.38 381.29 235.13 381.24
  A 0.96 0.95 -0.0 0 1 236.09 382.19
  L 236.08 434.30"
/>
<path stroke="#a6a9db" vector-effect="non-scaling-stroke" d="
  M 236.08 434.30
  L 235.94 452.30
  A 0.63 0.63 0.0 0 1 235.35 452.92
  C 230.18 453.35 223.97 452.88 219.88 452.93
  Q 218.02 452.95 171.10 453.03
  C 163.59 453.04 159.25 452.39 155.06 457.44
  C 151.29 461.99 151.63 468.34 155.14 472.73
  Q 158.48 476.92 165.48 476.98
  Q 205.80 477.30 234.79 476.83
  A 1.33 1.33 0.0 0 1 236.14 478.17
  L 235.91 548.79"
/>
<path stroke="#b59fdb" vector-effect="non-scaling-stroke" d="
  M 235.91 548.79
  Q 235.83 548.92 235.65 549.02
  Q 235.54 549.08 235.33 549.08
  Q 200.73 548.91 165.00 549.00
  C 148.44 549.05 148.12 573.03 165.50 573.07
  Q 216.64 573.17 234.91 572.94
  A 1.14 1.14 0.0 0 1 236.06 574.08
  L 236.06 644.32
  A 0.80 0.79 -89.6 0 1 235.26 645.12
  Q 206.40 644.86 167.35 644.98
  Q 162.31 644.99 160.25 645.78
  C 150.60 649.46 149.99 663.82 159.44 667.99
  Q 161.65 668.97 167.70 668.93
  Q 190.01 668.78 235.24 668.96
  A 0.78 0.77 90.0 0 1 236.01 669.74
  Q 235.89 698.29 236.03 706.74
  C 236.49 736.33 256.77 760.53 285.44 767.17
  Q 291.38 768.55 305.15 768.56
  Q 323.73 768.58 342.75 768.49"
/>
<path stroke="#d6a2c9" vector-effect="non-scaling-stroke" d="
  M 342.75 768.49
  Q 342.73 804.75 342.57 841.00
  Q 342.54 847.69 347.60 851.18
  C 353.43 855.21 361.71 853.53 365.09 847.30
  Q 366.45 844.77 366.38 837.98
  Q 366.25 826.97 366.34 769.01
  A 0.46 0.46 0.0 0 1 366.80 768.55
  L 440.19 768.59"
/>
<path stroke="#eaa9b5" vector-effect="non-scaling-stroke" d="
  M 440.19 768.59
  Q 440.99 768.29 440.99 769.25
  Q 441.07 805.18 440.96 837.10
  Q 440.95 842.80 441.64 844.84
  C 443.69 850.86 450.35 855.11 456.57 852.99
  Q 465.04 850.10 465.05 840.71
  Q 465.05 804.39 465.05 769.15
  A 0.56 0.55 0.0 0 1 465.61 768.60
  L 538.98 768.55"
/>
<path stroke="#ffb69b" vector-effect="non-scaling-stroke" d="
  M 538.98 768.55
  Q 538.92 802.53 538.91 836.61
  C 538.91 839.62 538.72 842.79 539.56 845.44
  C 542.61 855.03 556.01 856.47 561.26 847.89
  Q 562.91 845.19 562.90 840.56
  Q 562.82 804.75 562.81 768.99
  A 0.37 0.37 0.0 0 1 563.18 768.62
  L 636.54 768.62
  A 0.47 0.46 0.0 0 1 637.01 769.08
  Q 636.78 829.36 637.04 841.99
  C 637.36 857.88 660.88 857.00 660.91 841.48
  Q 660.98 807.93 660.92 768.95
  A 0.32 0.32 0.0 0 1 661.24 768.63
  Q 680.53 768.46 696.35 768.63
  Q 711.26 768.80 719.56 767.00
  Q 739.19 762.76 752.96 747.70
  Q 769.39 729.73 768.75 704.00"
/>
<path stroke="#fbc097" vector-effect="non-scaling-stroke" d="
  M 768.75 704.00
  L 768.84 669.62
  A 0.78 0.78 0.0 0 1 769.62 668.84
  Q 806.74 669.04 839.97 668.71
  C 853.85 668.57 857.39 650.21 844.10 645.36
  Q 842.47 644.76 832.69 644.82
  Q 818.94 644.90 769.71 644.88
  A 0.99 0.99 0.0 0 1 768.72 643.89
  L 768.80 631.08"
/>
<path stroke="#efc997" vector-effect="non-scaling-stroke" d="
  M 768.80 631.08
  L 768.85 573.89
  A 0.92 0.91 -0.0 0 1 769.77 572.98
  Q 804.36 573.11 839.62 572.89
  C 852.47 572.81 857.41 556.25 845.63 550.12
  Q 842.95 548.73 835.70 548.88
  Q 831.27 548.97 769.49 548.94
  A 0.66 0.66 0.0 0 1 768.83 548.28
  L 768.83 504.44"
/>
<path stroke="#dad0a5" vector-effect="non-scaling-stroke" d="
  M 768.83 504.44
  L 768.93 478.01
  A 1.02 1.01 69.1 0 1 769.26 477.26
  L 769.55 477.00"
/>
<path stroke="#efc997" vector-effect="non-scaling-stroke" d="
  M 769.55 477.00
  Q 804.27 477.04 839.00 477.08
  Q 845.72 477.09 849.61 472.27
  C 854.64 466.04 852.39 457.27 845.06 453.82
  C 842.63 452.68 837.97 452.87 835.75 452.87
  Q 807.27 452.93 778.79 453.02"
/>
<path stroke="#dad0a5" vector-effect="non-scaling-stroke" d="
  M 778.79 453.02
  L 769.65 452.91
  A 0.89 0.88 -89.7 0 1 768.78 452.02
  L 768.82 431.15"
/>
<path stroke="#badbb7" vector-effect="non-scaling-stroke" d="
  M 768.82 431.15
  L 768.82 381.39
  A 0.50 0.50 0.0 0 1 769.32 380.89
  Q 831.84 380.70 837.52 380.69
  Q 842.28 380.69 844.39 379.94
  C 852.35 377.12 854.80 366.94 849.01 360.78
  Q 845.38 356.93 838.77 356.95
  Q 810.79 357.05 769.64 356.95
  A 0.84 0.84 0.0 0 1 768.80 356.11
  L 768.63 324.72"
/>
<path stroke="#96e1d2" vector-effect="non-scaling-stroke" d="
  M 768.63 324.72
  Q 769.32 299.91 753.04 281.46
  Q 749.90 277.90 747.43 276.50"
/>
<path stroke="#8edcda" vector-effect="non-scaling-stroke" d="
  M 747.43 276.50
  Q 735.83 265.61 720.77 261.83
  Q 712.53 259.76 697.58 259.76
  C 685.66 259.76 673.67 259.91 661.67 259.78
  A 0.75 0.75 0.0 0 1 660.92 259.03
  Q 660.86 228.52 661.05 193.58
  C 661.09 186.30 661.45 181.00 656.38 176.60
  C 652.80 173.49 647.04 172.74 643.08 175.30
  Q 636.74 179.41 636.80 187.26
  Q 636.97 208.87 636.88 259.03
  A 0.85 0.84 -89.7 0 1 636.04 259.87
  L 563.52 259.87
  A 0.66 0.66 0.0 0 1 562.86 259.21
  Q 562.72 236.02 563.00 188.52
  Q 563.05 180.67 558.38 176.67
  Q 551.60 170.87 544.04 175.92"
/>
<path stroke="#8bd3dc" vector-effect="non-scaling-stroke" d="
  M 544.04 175.92
  Q 539.03 179.89 539.00 186.25
  Q 538.82 225.71 538.93 258.85
  A 1.00 1.00 0.0 0 1 537.93 259.85
  L 466.20 259.85
  A 1.05 1.05 0.0 0 1 465.15 258.80
  Q 465.17 189.74 465.17 189.71
  C 465.15 184.04 464.66 180.64 460.94 177.10
  C 452.05 168.65 440.95 177.65 440.94 187.75
  Q 440.92 223.63 440.92 258.84
  A 1.02 1.02 0.0 0 1 439.90 259.86
  L 413.96 259.89"
/>
<path stroke="#8bc8dc" vector-effect="non-scaling-stroke" d="
  M 413.96 259.89
  L 367.23 259.91
  A 0.86 0.86 0.0 0 1 366.37 259.05
  Q 366.33 196.00 366.40 190.50
  Q 366.47 184.75 365.74 182.00
  C 363.96 175.21 355.59 171.92 349.43 174.97
  Q 342.88 178.20 342.83 185.75
  Q 342.80 191.47 342.66 259.12
  A 0.72 0.71 -89.6 0 1 341.95 259.83
  Q 319.86 259.96 305.72 259.80
  Q 293.27 259.67 285.87 261.29
  C 266.33 265.58 249.18 279.37 240.97 297.91"
/>
<path stroke="#179cb9" vector-effect="non-scaling-stroke" d="
  M 413.96 259.89
  L 424.16 260.04
  A 0.16 0.15 0.2 0 1 424.31 260.18
  L 424.31 260.19
  A 0.16 0.16 0.0 0 1 424.18 260.36
  Q 418.31 261.27 413.39 263.29
  C 403.81 267.22 405.83 274.00 409.77 281.05
  A 0.85 0.83 76.2 0 0 410.46 281.48
  Q 433.24 282.38 458.24 282.09
  Q 461.25 282.06 463.71 282.75
  A 0.17 0.17 0.0 0 1 463.66 283.09
  L 403.29 283.23"
/>
<path stroke="#8bc8dc" vector-effect="non-scaling-stroke" d="
  M 403.29 283.23
  Q 355.80 283.24 308.30 283.26
  C 302.90 283.26 297.26 283.08 292.47 284.08
  C 272.21 288.28 259.32 304.47 259.36 325.00
  Q 259.40 342.08 259.37 359.24"
/>
<path stroke="#247db9" vector-effect="non-scaling-stroke" d="
  M 259.37 359.24
  Q 257.89 350.63 258.02 341.71
  Q 258.19 331.13 258.55 316.36
  A 0.58 0.57 3.9 0 0 258.04 315.78
  C 253.09 315.26 247.65 313.92 244.08 310.40
  C 241.07 307.44 240.68 302.12 240.97 297.91"
/>
<path stroke="#1ab0b6" vector-effect="non-scaling-stroke" d="
  M 544.04 175.92
  Q 540.49 183.35 540.42 192.72
  Q 540.20 222.41 540.46 249.76
  Q 540.52 255.93 539.28 260.30
  A 0.75 0.75 0.0 0 1 538.61 260.85
  C 530.60 261.47 520.90 262.30 514.09 266.16
  C 508.31 269.43 507.46 274.77 507.61 280.88
  A 0.53 0.52 0.0 0 0 508.13 281.39
  Q 548.22 282.38 585.97 282.13
  Q 590.40 282.11 595.05 281.67"
/>
<path stroke="#22b5af" vector-effect="non-scaling-stroke" d="
  M 595.05 281.67
  L 639.66 282.56
  A 0.16 0.16 0.0 0 1 639.82 282.72
  L 639.82 282.73
  A 0.17 0.16 1.8 0 1 639.65 282.88
  L 620.20 283.26"
/>
<path stroke="#8bd3dc" vector-effect="non-scaling-stroke" d="
  M 620.20 283.26
  L 403.29 283.23"
/>
<path stroke="#4e53b7" vector-effect="non-scaling-stroke" d="
  M 259.35 572.96
  Q 259.10 573.03 258.98 573.14
  A 0.16 0.15 -27.1 0 1 258.73 573.06
  L 258.64 572.70
  A 0.96 0.87 -56.2 0 1 258.60 572.43
  L 258.58 551.44"
/>
<path stroke="#3f5db7" vector-effect="non-scaling-stroke" d="
  M 258.58 551.44
  L 258.36 437.76
  A 1.01 1.01 0.0 0 0 257.33 436.75
  Q 247.83 436.97 237.88 435.67
  A 0.70 0.69 -86.2 0 1 237.28 434.98
  L 237.28 428.56
  A 0.44 0.44 0.0 0 0 236.84 428.12
  L 236.57 428.12
  A 0.32 0.32 0.0 0 0 236.25 428.43
  L 236.08 434.30"
/>
<path stroke="#badbb7" vector-effect="non-scaling-stroke" d="
  M 744.92 316.84
  Q 745.44 321.75 745.46 326.75
  Q 745.55 364.77 745.53 402.79"
/>
<path stroke="#dad0a5" vector-effect="non-scaling-stroke" d="
  M 745.53 402.79
  L 745.56 528.33"
/>
<path stroke="#efc997" vector-effect="non-scaling-stroke" d="
  M 745.56 528.33
  L 745.53 635.95"
/>
<path stroke="#fbc097" vector-effect="non-scaling-stroke" d="
  M 745.53 635.95
  L 745.51 703.00"
/>
<path stroke="#ffb69b" vector-effect="non-scaling-stroke" d="
  M 745.51 703.00
  Q 745.30 709.53 744.79 712.27
  C 741.05 732.36 723.98 745.36 704.00 745.38
  Q 610.77 745.45 517.54 745.45"
/>
<path stroke="#eaa9b5" vector-effect="non-scaling-stroke" d="
  M 517.54 745.45
  L 422.81 745.41"
/>
<path stroke="#d6a2c9" vector-effect="non-scaling-stroke" d="
  M 422.81 745.41
  Q 362.10 745.46 301.00 745.38
  Q 297.88 745.38 294.82 744.96"
/>
<path stroke="#b59fdb" vector-effect="non-scaling-stroke" d="
  M 294.82 744.96
  Q 284.06 743.51 275.44 737.04
  Q 262.73 727.50 260.22 711.72
  Q 259.41 706.64 259.41 701.50
  Q 259.38 637.23 259.35 572.96"
/>
<path stroke="#98b4dc" vector-effect="non-scaling-stroke" d="
  M 259.35 572.96
  L 259.37 359.24"
/>
<path stroke="#51bd8a" vector-effect="non-scaling-stroke" d="
  M 768.63 324.72
  L 765.49 307.35
  A 0.39 0.38 71.8 0 0 764.94 307.07
  L 744.92 316.84"
/>
<path stroke="#96e1d2" vector-effect="non-scaling-stroke" d="
  M 744.92 316.84
  Q 741.26 297.44 724.58 288.40
  C 713.90 282.61 705.74 283.35 690.19 283.31
  Q 655.21 283.22 620.20 283.26"
/>
<path stroke="#25bdad" vector-effect="non-scaling-stroke" d="
  M 747.43 276.50
  Q 736.85 268.81 725.29 264.33
  C 721.16 262.73 717.42 262.45 713.24 261.59
  A 11.56 11.38 49.5 0 0 710.72 261.37
  Q 682.03 262.01 676.41 261.79
  C 666.81 261.42 655.42 260.74 643.71 261.54
  Q 629.81 262.50 619.66 263.94
  C 608.03 265.59 600.70 271.60 595.05 281.67"
/>
<path stroke="#5c48b6" vector-effect="non-scaling-stroke" d="
  M 258.58 551.44
  Q 251.10 538.28 237.82 532.47
  A 0.35 0.35 0.0 0 0 237.32 532.80
  Q 237.46 540.37 237.14 548.12
  Q 237.10 549.07 236.26 549.14
  Q 236.13 549.15 235.91 548.79"
/>
<path stroke="#8c42a4" vector-effect="non-scaling-stroke" d="
  M 294.82 744.96
  Q 294.67 746.21 292.99 745.87
  Q 293.00 745.87 293.00 745.88
  C 301.74 747.07 310.90 746.71 319.72 746.78
  A 0.13 0.11 -23.7 0 1 319.79 746.80
  Q 319.80 746.81 319.82 746.83
  A 0.02 0.02 0.0 0 1 319.81 746.87
  L 314.28 747.09
  A 1.25 1.25 0.0 0 0 313.51 747.40
  Q 303.73 756.03 296.80 766.33
  A 0.31 0.30 20.4 0 0 297.02 766.80
  Q 300.39 767.16 301.40 767.16
  Q 332.16 767.37 338.87 767.44
  Q 339.39 767.45 340.13 767.67
  A 0.09 0.09 0.0 0 1 340.12 767.84
  Q 339.94 767.87 339.89 767.89
  A 0.21 0.20 -55.6 0 0 339.96 768.28
  L 342.75 768.49"
/>
<path stroke="#c14c7f" vector-effect="non-scaling-stroke" d="
  M 422.81 745.41
  Q 412.47 755.01 403.56 766.40
  A 0.26 0.25 19.3 0 0 403.76 766.81
  L 440.01 767.37
  A 0.49 0.49 0.0 0 1 440.44 768.07
  L 440.19 768.59"
/>
<path stroke="#ca9a3d" vector-effect="non-scaling-stroke" d="
  M 778.79 453.02
  L 773.31 453.36
  A 0.17 0.04 -2.3 0 0 773.18 453.40
  Q 773.16 453.42 773.13 453.44
  A 0.14 0.07 16.7 0 0 773.28 453.59
  Q 786.76 453.67 813.06 454.19
  Q 814.57 454.22 818.36 454.68
  A 0.53 0.52 26.1 0 1 818.67 455.57
  L 798.60 475.64
  A 0.67 0.64 -66.9 0 1 798.18 475.82
  Q 783.14 476.30 769.96 476.30
  Q 769.54 476.30 769.38 476.68
  Q 769.24 476.99 769.55 477.00"
/>
<path stroke="#ca9a3d" vector-effect="non-scaling-stroke" d="
  M 768.83 504.44
  Q 761.28 506.79 755.85 513.54
  Q 749.59 521.33 745.56 528.33"
/>
<path stroke="#95ac5c" vector-effect="non-scaling-stroke" d="
  M 768.82 431.15
  L 747.58 444.11
  A 0.26 0.26 0.0 0 1 747.19 443.89
  L 746.82 403.75
  A 0.07 0.06 75.5 0 0 746.73 403.68
  Q 746.69 403.71 746.65 403.75
  A 0.18 0.11 69.3 0 1 746.45 403.59
  Q 746.08 401.77 745.88 399.64
  Q 746.07 401.38 745.53 402.79"
/>
<path stroke="#ea6051" vector-effect="non-scaling-stroke" d="
  M 538.98 768.55
  L 539.48 768.65
  A 0.33 0.33 0.0 0 0 539.87 768.33
  L 539.88 767.95
  A 0.52 0.51 1.1 0 0 539.37 767.43
  L 516.15 767.07
  A 0.26 0.25 19.3 0 1 515.95 766.66
  Q 525.59 754.43 538.20 747.13
  A 0.20 0.20 0.0 0 0 538.10 746.75
  L 513.58 746.37
  A 0.07 0.07 0.0 0 1 513.51 746.29
  L 513.51 746.03
  A 0.23 0.22 4.4 0 1 513.77 745.81
  Q 515.73 746.17 517.54 745.45"
/>
<path stroke="#eb8a2f" vector-effect="non-scaling-stroke" d="
  M 768.80 631.08
  Q 761.28 638.32 752.07 642.01
  C 747.11 644.00 746.47 639.31 745.53 635.95"
/>
<path stroke="#fa7733" vector-effect="non-scaling-stroke" d="
  M 768.75 704.00
  C 765.21 707.91 756.24 717.02 750.08 714.09
  C 747.04 712.64 745.91 706.25 745.51 703.00"
/>
<path stroke="#80a4c7" vector-effect="non-scaling-stroke" d="
  M 502.78 695.32
  Q 589.56 695.21 589.74 695.21
  Q 615.67 695.08 633.39 677.36
  Q 645.59 665.15 649.58 648.24
  Q 651.15 641.60 651.09 624.93
  Q 650.80 545.98 650.94 503.06
  Q 650.99 488.69 649.46 483.24
  C 645.00 467.39 630.47 454.22 613.50 453.77
  Q 604.34 453.53 599.51 453.63
  A 0.65 0.65 0.0 0 1 598.85 452.99
  Q 598.69 439.90 598.80 427.33
  Q 598.94 409.96 597.59 401.79
  C 591.71 366.12 565.56 336.74 531.65 325.84
  Q 518.04 321.46 502.33 321.48
  Q 486.63 321.50 473.02 325.91
  C 439.14 336.89 413.06 366.34 407.27 402.02
  Q 405.94 410.19 406.12 427.56
  Q 406.26 440.13 406.13 453.22
  A 0.65 0.65 0.0 0 1 405.47 453.87
  Q 400.64 453.78 391.48 454.04
  C 374.51 454.53 360.02 467.74 355.60 483.60
  Q 354.08 489.05 354.16 503.42
  Q 354.41 546.34 354.31 625.29
  Q 354.29 641.96 355.88 648.60
  Q 359.91 665.50 372.14 677.68
  Q 389.90 695.35 415.83 695.42
  Q 416.01 695.42 502.78 695.32"
/>
<path stroke="#80a4c7" vector-effect="non-scaling-stroke" d="
  M 432.55 454.07
  L 572.65 453.83
  A 1.55 1.55 0.0 0 0 574.20 452.27
  L 574.14 418.51
  A 71.90 70.71 89.9 0 0 503.31 346.73
  L 501.53 346.73
  A 71.90 70.71 89.9 0 0 430.94 418.75
  L 431.00 452.52
  A 1.55 1.55 0.0 0 0 432.55 454.07"
/>
<path stroke="#80a4c7" vector-effect="non-scaling-stroke" d="
  M 381.14 487.43
  C 378.96 491.63 379.02 496.39 379.03 501.76
  Q 379.21 595.48 379.01 630.00
  Q 378.97 637.66 380.00 642.05
  C 383.99 659.12 398.39 671.35 416.00 671.35
  Q 574.29 671.41 587.76 671.36
  C 605.51 671.28 619.88 660.70 624.49 644.05
  Q 625.91 638.91 625.90 621.28
  Q 625.85 505.37 625.82 495.27
  C 625.80 487.04 621.01 479.54 612.70 478.16
  Q 611.29 477.93 602.29 477.94
  Q 506.66 478.05 402.12 477.94
  Q 398.09 477.94 392.98 478.18
  A 6.42 6.22 33.1 0 0 391.33 478.50
  Q 384.57 480.83 381.14 487.43"
/>
<path stroke="#80a4c7" vector-effect="non-scaling-stroke" d="
  M 586.78 509.80
  A 3.83 3.83 0.0 0 0 582.95 505.97
  L 565.25 505.97
  A 3.83 3.83 0.0 0 0 561.42 509.80
  L 561.42 632.02
  A 3.83 3.83 0.0 0 0 565.25 635.85
  L 582.95 635.85
  A 3.83 3.83 0.0 0 0 586.78 632.02
  L 586.78 509.80"
/>
<path stroke="#80a4c7" vector-effect="non-scaling-stroke" d="
  M 508.63 608.29
  Q 511.42 615.42 515.36 627.98
  C 516.80 632.58 518.39 635.92 523.52 635.94
  Q 537.16 636.01 539.49 635.92
  C 542.73 635.80 546.23 634.99 544.73 631.05
  Q 527.28 585.34 500.36 515.48
  C 498.42 510.44 497.84 506.97 492.49 506.85
  Q 487.13 506.74 471.99 506.86
  C 468.81 506.88 466.80 507.79 465.65 510.69
  Q 460.48 523.76 456.07 534.98
  Q 439.71 576.68 419.00 630.04
  Q 417.76 633.23 418.30 634.17
  Q 419.26 635.87 422.10 635.90
  Q 429.72 635.97 439.54 635.95
  C 445.75 635.93 446.86 632.00 448.93 626.45
  Q 451.69 619.04 455.11 608.77
  A 2.61 2.61 0.0 0 1 457.59 606.98
  L 506.70 606.98
  A 2.08 2.08 0.0 0 1 508.63 608.29"
/>
<path stroke="#80a4c7" vector-effect="non-scaling-stroke" d="
  M 463.53 582.61
  A 1.55 1.55 0.0 0 0 464.98 584.68
  L 498.81 584.80
  A 1.55 1.55 0.0 0 0 500.28 582.74
  L 483.54 534.28
  A 1.55 1.55 0.0 0 0 480.61 534.27
  L 463.53 582.61"
/>
</g>
<path fill="#ffffff" d="
  M 1024.00 0.00
  L 1024.00 1024.00
  L 0.00 1024.00
  L 0.00 0.00
  L 1024.00 0.00
  Z
  M 240.97 297.91
  C 235.86 309.70 235.82 319.17 235.93 333.94
  Q 235.95 335.93 235.99 356.80
  A 0.63 0.63 0.0 0 1 235.35 357.43
  Q 202.13 357.41 166.70 357.40
  Q 160.84 357.40 158.54 358.63
  C 149.91 363.27 149.97 376.35 159.08 380.45
  Q 161.07 381.34 166.07 381.34
  Q 219.38 381.29 235.13 381.24
  A 0.96 0.95 -0.0 0 1 236.09 382.19
  L 236.08 434.30
  L 235.94 452.30
  A 0.63 0.63 0.0 0 1 235.35 452.92
  C 230.18 453.35 223.97 452.88 219.88 452.93
  Q 218.02 452.95 171.10 453.03
  C 163.59 453.04 159.25 452.39 155.06 457.44
  C 151.29 461.99 151.63 468.34 155.14 472.73
  Q 158.48 476.92 165.48 476.98
  Q 205.80 477.30 234.79 476.83
  A 1.33 1.33 0.0 0 1 236.14 478.17
  L 235.91 548.79
  Q 235.83 548.92 235.65 549.02
  Q 235.54 549.08 235.33 549.08
  Q 200.73 548.91 165.00 549.00
  C 148.44 549.05 148.12 573.03 165.50 573.07
  Q 216.64 573.17 234.91 572.94
  A 1.14 1.14 0.0 0 1 236.06 574.08
  L 236.06 644.32
  A 0.80 0.79 -89.6 0 1 235.26 645.12
  Q 206.40 644.86 167.35 644.98
  Q 162.31 644.99 160.25 645.78
  C 150.60 649.46 149.99 663.82 159.44 667.99
  Q 161.65 668.97 167.70 668.93
  Q 190.01 668.78 235.24 668.96
  A 0.78 0.77 90.0 0 1 236.01 669.74
  Q 235.89 698.29 236.03 706.74
  C 236.49 736.33 256.77 760.53 285.44 767.17
  Q 291.38 768.55 305.15 768.56
  Q 323.73 768.58 342.75 768.49
  Q 342.73 804.75 342.57 841.00
  Q 342.54 847.69 347.60 851.18
  C 353.43 855.21 361.71 853.53 365.09 847.30
  Q 366.45 844.77 366.38 837.98
  Q 366.25 826.97 366.34 769.01
  A 0.46 0.46 0.0 0 1 366.80 768.55
  L 440.19 768.59
  Q 440.99 768.29 440.99 769.25
  Q 441.07 805.18 440.96 837.10
  Q 440.95 842.80 441.64 844.84
  C 443.69 850.86 450.35 855.11 456.57 852.99
  Q 465.04 850.10 465.05 840.71
  Q 465.05 804.39 465.05 769.15
  A 0.56 0.55 0.0 0 1 465.61 768.60
  L 538.98 768.55
  Q 538.92 802.53 538.91 836.61
  C 538.91 839.62 538.72 842.79 539.56 845.44
  C 542.61 855.03 556.01 856.47 561.26 847.89
  Q 562.91 845.19 562.90 840.56
  Q 562.82 804.75 562.81 768.99
  A 0.37 0.37 0.0 0 1 563.18 768.62
  L 636.54 768.62
  A 0.47 0.46 0.0 0 1 637.01 769.08
  Q 636.78 829.36 637.04 841.99
  C 637.36 857.88 660.88 857.00 660.91 841.48
  Q 660.98 807.93 660.92 768.95
  A 0.32 0.32 0.0 0 1 661.24 768.63
  Q 680.53 768.46 696.35 768.63
  Q 711.26 768.80 719.56 767.00
  Q 739.19 762.76 752.96 747.70
  Q 769.39 729.73 768.75 704.00
  L 768.84 669.62
  A 0.78 0.78 0.0 0 1 769.62 668.84
  Q 806.74 669.04 839.97 668.71
  C 853.85 668.57 857.39 650.21 844.10 645.36
  Q 842.47 644.76 832.69 644.82
  Q 818.94 644.90 769.71 644.88
  A 0.99 0.99 0.0 0 1 768.72 643.89
  L 768.80 631.08
  L 768.85 573.89
  A 0.92 0.91 -0.0 0 1 769.77 572.98
  Q 804.36 573.11 839.62 572.89
  C 852.47 572.81 857.41 556.25 845.63 550.12
  Q 842.95 548.73 835.70 548.88
  Q 831.27 548.97 769.49 548.94
  A 0.66 0.66 0.0 0 1 768.83 548.28
  L 768.83 504.44
  L 768.93 478.01
  A 1.02 1.01 69.1 0 1 769.26 477.26
  L 769.55 477.00
  Q 804.27 477.04 839.00 477.08
  Q 845.72 477.09 849.61 472.27
  C 854.64 466.04 852.39 457.27 845.06 453.82
  C 842.63 452.68 837.97 452.87 835.75 452.87
  Q 807.27 452.93 778.79 453.02
  L 769.65 452.91
  A 0.89 0.88 -89.7 0 1 768.78 452.02
  L 768.82 431.15
  L 768.82 381.39
  A 0.50 0.50 0.0 0 1 769.32 380.89
  Q 831.84 380.70 837.52 380.69
  Q 842.28 380.69 844.39 379.94
  C 852.35 377.12 854.80 366.94 849.01 360.78
  Q 845.38 356.93 838.77 356.95
  Q 810.79 357.05 769.64 356.95
  A 0.84 0.84 0.0 0 1 768.80 356.11
  L 768.63 324.72
  Q 769.32 299.91 753.04 281.46
  Q 749.90 277.90 747.43 276.50
  Q 735.83 265.61 720.77 261.83
  Q 712.53 259.76 697.58 259.76
  C 685.66 259.76 673.67 259.91 661.67 259.78
  A 0.75 0.75 0.0 0 1 660.92 259.03
  Q 660.86 228.52 661.05 193.58
  C 661.09 186.30 661.45 181.00 656.38 176.60
  C 652.80 173.49 647.04 172.74 643.08 175.30
  Q 636.74 179.41 636.80 187.26
  Q 636.97 208.87 636.88 259.03
  A 0.85 0.84 -89.7 0 1 636.04 259.87
  L 563.52 259.87
  A 0.66 0.66 0.0 0 1 562.86 259.21
  Q 562.72 236.02 563.00 188.52
  Q 563.05 180.67 558.38 176.67
  Q 551.60 170.87 544.04 175.92
  Q 539.03 179.89 539.00 186.25
  Q 538.82 225.71 538.93 258.85
  A 1.00 1.00 0.0 0 1 537.93 259.85
  L 466.20 259.85
  A 1.05 1.05 0.0 0 1 465.15 258.80
  Q 465.17 189.74 465.17 189.71
  C 465.15 184.04 464.66 180.64 460.94 177.10
  C 452.05 168.65 440.95 177.65 440.94 187.75
  Q 440.92 223.63 440.92 258.84
  A 1.02 1.02 0.0 0 1 439.90 259.86
  L 413.96 259.89
  L 367.23 259.91
  A 0.86 0.86 0.0 0 1 366.37 259.05
  Q 366.33 196.00 366.40 190.50
  Q 366.47 184.75 365.74 182.00
  C 363.96 175.21 355.59 171.92 349.43 174.97
  Q 342.88 178.20 342.83 185.75
  Q 342.80 191.47 342.66 259.12
  A 0.72 0.71 -89.6 0 1 341.95 259.83
  Q 319.86 259.96 305.72 259.80
  Q 293.27 259.67 285.87 261.29
  C 266.33 265.58 249.18 279.37 240.97 297.91
  Z"
/>
<g>
<path fill="#1691b9" d="
  M 413.96 259.89
  L 424.16 260.04
  A 0.16 0.15 0.2 0 1 424.31 260.18
  L 424.31 260.19
  A 0.16 0.16 0.0 0 1 424.18 260.36
  Q 418.31 261.27 413.39 263.29
  C 403.81 267.22 405.83 274.00 409.77 281.05
  A 0.85 0.83 76.2 0 0 410.46 281.48
  Q 433.24 282.38 458.24 282.09
  Q 461.25 282.06 463.71 282.75
  A 0.17 0.17 0.0 0 1 463.66 283.09
  L 403.29 283.23
  Q 355.80 283.24 308.30 283.26
  C 302.90 283.26 297.26 283.08 292.47 284.08
  C 272.21 288.28 259.32 304.47 259.36 325.00
  Q 259.40 342.08 259.37 359.24
  Q 257.89 350.63 258.02 341.71
  Q 258.19 331.13 258.55 316.36
  A 0.58 0.57 3.9 0 0 258.04 315.78
  C 253.09 315.26 247.65 313.92 244.08 310.40
  C 241.07 307.44 240.68 302.12 240.97 297.91
  C 249.18 279.37 266.33 265.58 285.87 261.29
  Q 293.27 259.67 305.72 259.80
  Q 319.86 259.96 341.95 259.83
  A 0.72 0.71 -89.6 0 0 342.66 259.12
  Q 342.80 191.47 342.83 185.75
  Q 342.88 178.20 349.43 174.97
  C 355.59 171.92 363.96 175.21 365.74 182.00
  Q 366.47 184.75 366.40 190.50
  Q 366.33 196.00 366.37 259.05
  A 0.86 0.86 0.0 0 0 367.23 259.91
  L 413.96 259.89
  Z"
/>
<path fill="#17a7b8" d="
  M 544.04 175.92
  Q 540.49 183.35 540.42 192.72
  Q 540.20 222.41 540.46 249.76
  Q 540.52 255.93 539.28 260.30
  A 0.75 0.75 0.0 0 1 538.61 260.85
  C 530.60 261.47 520.90 262.30 514.09 266.16
  C 508.31 269.43 507.46 274.77 507.61 280.88
  A 0.53 0.52 0.0 0 0 508.13 281.39
  Q 548.22 282.38 585.97 282.13
  Q 590.40 282.11 595.05 281.67
  L 639.66 282.56
  A 0.16 0.16 0.0 0 1 639.82 282.72
  L 639.82 282.73
  A 0.17 0.16 1.8 0 1 639.65 282.88
  L 620.20 283.26
  L 403.29 283.23
  L 463.66 283.09
  A 0.17 0.17 0.0 0 0 463.71 282.75
  Q 461.25 282.06 458.24 282.09
  Q 433.24 282.38 410.46 281.48
  A 0.85 0.83 76.2 0 1 409.77 281.05
  C 405.83 274.00 403.81 267.22 413.39 263.29
  Q 418.31 261.27 424.18 260.36
  A 0.16 0.16 0.0 0 0 424.31 260.19
  L 424.31 260.18
  A 0.16 0.15 0.2 0 0 424.16 260.04
  L 413.96 259.89
  L 439.90 259.86
  A 1.02 1.02 0.0 0 0 440.92 258.84
  Q 440.92 223.63 440.94 187.75
  C 440.95 177.65 452.05 168.65 460.94 177.10
  C 464.66 180.64 465.15 184.04 465.17 189.71
  Q 465.17 189.74 465.15 258.80
  A 1.05 1.05 0.0 0 0 466.20 259.85
  L 537.93 259.85
  A 1.00 1.00 0.0 0 0 538.93 258.85
  Q 538.82 225.71 539.00 186.25
  Q 539.03 179.89 544.04 175.92
  Z"
/>
<path fill="#1db8b4" d="
  M 747.43 276.50
  Q 736.85 268.81 725.29 264.33
  C 721.16 262.73 717.42 262.45 713.24 261.59
  A 11.56 11.38 49.5 0 0 710.72 261.37
  Q 682.03 262.01 676.41 261.79
  C 666.81 261.42 655.42 260.74 643.71 261.54
  Q 629.81 262.50 619.66 263.94
  C 608.03 265.59 600.70 271.60 595.05 281.67
  Q 590.40 282.11 585.97 282.13
  Q 548.22 282.38 508.13 281.39
  A 0.53 0.52 0.0 0 1 507.61 280.88
  C 507.46 274.77 508.31 269.43 514.09 266.16
  C 520.90 262.30 530.60 261.47 538.61 260.85
  A 0.75 0.75 0.0 0 0 539.28 260.30
  Q 540.52 255.93 540.46 249.76
  Q 540.20 222.41 540.42 192.72
  Q 540.49 183.35 544.04 175.92
  Q 551.60 170.87 558.38 176.67
  Q 563.05 180.67 563.00 188.52
  Q 562.72 236.02 562.86 259.21
  A 0.66 0.66 0.0 0 0 563.52 259.87
  L 636.04 259.87
  A 0.85 0.84 -89.7 0 0 636.88 259.03
  Q 636.97 208.87 636.80 187.26
  Q 636.74 179.41 643.08 175.30
  C 647.04 172.74 652.80 173.49 656.38 176.60
  C 661.45 181.00 661.09 186.30 661.05 193.58
  Q 660.86 228.52 660.92 259.03
  A 0.75 0.75 0.0 0 0 661.67 259.78
  C 673.67 259.91 685.66 259.76 697.58 259.76
  Q 712.53 259.76 720.77 261.83
  Q 735.83 265.61 747.43 276.50
  Z"
/>
<path fill="#2cc2a5" d="
  M 747.43 276.50
  Q 749.90 277.90 753.04 281.46
  Q 769.32 299.91 768.63 324.72
  L 765.49 307.35
  A 0.39 0.38 71.8 0 0 764.94 307.07
  L 744.92 316.84
  Q 741.26 297.44 724.58 288.40
  C 713.90 282.61 705.74 283.35 690.19 283.31
  Q 655.21 283.22 620.20 283.26
  L 639.65 282.88
  A 0.17 0.16 1.8 0 0 639.82 282.73
  L 639.82 282.72
  A 0.16 0.16 0.0 0 0 639.66 282.56
  L 595.05 281.67
  C 600.70 271.60 608.03 265.59 619.66 263.94
  Q 629.81 262.50 643.71 261.54
  C 655.42 260.74 666.81 261.42 676.41 261.79
  Q 682.03 262.01 710.72 261.37
  A 11.56 11.38 49.5 0 1 713.24 261.59
  C 717.42 262.45 721.16 262.73 725.29 264.33
  Q 736.85 268.81 747.43 276.50
  Z"
/>
<path fill="#ffffff" d="
  M 403.29 283.23
  L 620.20 283.26
  Q 655.21 283.22 690.19 283.31
  C 705.74 283.35 713.90 282.61 724.58 288.40
  Q 741.26 297.44 744.92 316.84
  Q 745.44 321.75 745.46 326.75
  Q 745.55 364.77 745.53 402.79
  L 745.56 528.33
  L 745.53 635.95
  L 745.51 703.00
  Q 745.30 709.53 744.79 712.27
  C 741.05 732.36 723.98 745.36 704.00 745.38
  Q 610.77 745.45 517.54 745.45
  L 422.81 745.41
  Q 362.10 745.46 301.00 745.38
  Q 297.88 745.38 294.82 744.96
  Q 284.06 743.51 275.44 737.04
  Q 262.73 727.50 260.22 711.72
  Q 259.41 706.64 259.41 701.50
  Q 259.38 637.23 259.35 572.96
  L 259.37 359.24
  Q 259.40 342.08 259.36 325.00
  C 259.32 304.47 272.21 288.28 292.47 284.08
  C 297.26 283.08 302.90 283.26 308.30 283.26
  Q 355.80 283.24 403.29 283.23
  Z
  M 502.78 695.32
  Q 589.56 695.21 589.74 695.21
  Q 615.67 695.08 633.39 677.36
  Q 645.59 665.15 649.58 648.24
  Q 651.15 641.60 651.09 624.93
  Q 650.80 545.98 650.94 503.06
  Q 650.99 488.69 649.46 483.24
  C 645.00 467.39 630.47 454.22 613.50 453.77
  Q 604.34 453.53 599.51 453.63
  A 0.65 0.65 0.0 0 1 598.85 452.99
  Q 598.69 439.90 598.80 427.33
  Q 598.94 409.96 597.59 401.79
  C 591.71 366.12 565.56 336.74 531.65 325.84
  Q 518.04 321.46 502.33 321.48
  Q 486.63 321.50 473.02 325.91
  C 439.14 336.89 413.06 366.34 407.27 402.02
  Q 405.94 410.19 406.12 427.56
  Q 406.26 440.13 406.13 453.22
  A 0.65 0.65 0.0 0 1 405.47 453.87
  Q 400.64 453.78 391.48 454.04
  C 374.51 454.53 360.02 467.74 355.60 483.60
  Q 354.08 489.05 354.16 503.42
  Q 354.41 546.34 354.31 625.29
  Q 354.29 641.96 355.88 648.60
  Q 359.91 665.50 372.14 677.68
  Q 389.90 695.35 415.83 695.42
  Q 416.01 695.42 502.78 695.32
  Z"
/>
<path fill="#3168b8" d="
  M 259.37 359.24
  L 259.35 572.96
  Q 259.10 573.03 258.98 573.14
  A 0.16 0.15 -27.1 0 1 258.73 573.06
  L 258.64 572.70
  A 0.96 0.87 -56.2 0 1 258.60 572.43
  L 258.58 551.44
  L 258.36 437.76
  A 1.01 1.01 0.0 0 0 257.33 436.75
  Q 247.83 436.97 237.88 435.67
  A 0.70 0.69 -86.2 0 1 237.28 434.98
  L 237.28 428.56
  A 0.44 0.44 0.0 0 0 236.84 428.12
  L 236.57 428.12
  A 0.32 0.32 0.0 0 0 236.25 428.43
  L 236.08 434.30
  L 236.09 382.19
  A 0.96 0.95 -0.0 0 0 235.13 381.24
  Q 219.38 381.29 166.07 381.34
  Q 161.07 381.34 159.08 380.45
  C 149.97 376.35 149.91 363.27 158.54 358.63
  Q 160.84 357.40 166.70 357.40
  Q 202.13 357.41 235.35 357.43
  A 0.63 0.63 0.0 0 0 235.99 356.80
  Q 235.95 335.93 235.93 333.94
  C 235.82 319.17 235.86 309.70 240.97 297.91
  C 240.68 302.12 241.07 307.44 244.08 310.40
  C 247.65 313.92 253.09 315.26 258.04 315.78
  A 0.58 0.57 3.9 0 1 258.55 316.36
  Q 258.19 331.13 258.02 341.71
  Q 257.89 350.63 259.37 359.24
  Z"
/>
<path fill="#75b76e" d="
  M 768.63 324.72
  L 768.80 356.11
  A 0.84 0.84 0.0 0 0 769.64 356.95
  Q 810.79 357.05 838.77 356.95
  Q 845.38 356.93 849.01 360.78
  C 854.80 366.94 852.35 377.12 844.39 379.94
  Q 842.28 380.69 837.52 380.69
  Q 831.84 380.70 769.32 380.89
  A 0.50 0.50 0.0 0 0 768.82 381.39
  L 768.82 431.15
  L 747.58 444.11
  A 0.26 0.26 0.0 0 1 747.19 443.89
  L 746.82 403.75
  A 0.07 0.06 75.5 0 0 746.73 403.68
  Q 746.69 403.71 746.65 403.75
  A 0.18 0.11 69.3 0 1 746.45 403.59
  Q 746.08 401.77 745.88 399.64
  Q 746.07 401.38 745.53 402.79
  Q 745.55 364.77 745.46 326.75
  Q 745.44 321.75 744.92 316.84
  L 764.94 307.07
  A 0.39 0.38 71.8 0 1 765.49 307.35
  L 768.63 324.72
  Z"
/>
<path fill="#b5a14a" d="
  M 768.82 431.15
  L 768.78 452.02
  A 0.89 0.88 -89.7 0 0 769.65 452.91
  L 778.79 453.02
  L 773.31 453.36
  A 0.17 0.04 -2.3 0 0 773.18 453.40
  Q 773.16 453.42 773.13 453.44
  A 0.14 0.07 16.7 0 0 773.28 453.59
  Q 786.76 453.67 813.06 454.19
  Q 814.57 454.22 818.36 454.68
  A 0.53 0.52 26.1 0 1 818.67 455.57
  L 798.60 475.64
  A 0.67 0.64 -66.9 0 1 798.18 475.82
  Q 783.14 476.30 769.96 476.30
  Q 769.54 476.30 769.38 476.68
  Q 769.24 476.99 769.55 477.00
  L 769.26 477.26
  A 1.02 1.01 69.1 0 0 768.93 478.01
  L 768.83 504.44
  Q 761.28 506.79 755.85 513.54
  Q 749.59 521.33 745.56 528.33
  L 745.53 402.79
  Q 746.07 401.38 745.88 399.64
  Q 746.08 401.77 746.45 403.59
  A 0.18 0.11 69.3 0 0 746.65 403.75
  Q 746.69 403.71 746.73 403.68
  A 0.07 0.06 75.5 0 1 746.82 403.75
  L 747.19 443.89
  A 0.26 0.26 0.0 0 0 747.58 444.11
  L 768.82 431.15
  Z"
/>
<path fill="#4d52b6" d="
  M 258.58 551.44
  Q 251.10 538.28 237.82 532.47
  A 0.35 0.35 0.0 0 0 237.32 532.80
  Q 237.46 540.37 237.14 548.12
  Q 237.10 549.07 236.26 549.14
  Q 236.13 549.15 235.91 548.79
  L 236.14 478.17
  A 1.33 1.33 0.0 0 0 234.79 476.83
  Q 205.80 477.30 165.48 476.98
  Q 158.48 476.92 155.14 472.73
  C 151.63 468.34 151.29 461.99 155.06 457.44
  C 159.25 452.39 163.59 453.04 171.10 453.03
  Q 218.02 452.95 219.88 452.93
  C 223.97 452.88 230.18 453.35 235.35 452.92
  A 0.63 0.63 0.0 0 0 235.94 452.30
  L 236.08 434.30
  L 236.25 428.43
  A 0.32 0.32 0.0 0 1 236.57 428.12
  L 236.84 428.12
  A 0.44 0.44 0.0 0 1 237.28 428.56
  L 237.28 434.98
  A 0.70 0.69 -86.2 0 0 237.88 435.67
  Q 247.83 436.97 257.33 436.75
  A 1.01 1.01 0.0 0 1 258.36 437.76
  L 258.58 551.44
  Z"
/>
<path fill="#df932f" d="
  M 769.55 477.00
  Q 769.24 476.99 769.38 476.68
  Q 769.54 476.30 769.96 476.30
  Q 783.14 476.30 798.18 475.82
  A 0.67 0.64 -66.9 0 0 798.60 475.64
  L 818.67 455.57
  A 0.53 0.52 26.1 0 0 818.36 454.68
  Q 814.57 454.22 813.06 454.19
  Q 786.76 453.67 773.28 453.59
  A 0.14 0.07 16.7 0 1 773.13 453.44
  Q 773.16 453.42 773.18 453.40
  A 0.17 0.04 -2.3 0 1 773.31 453.36
  L 778.79 453.02
  Q 807.27 452.93 835.75 452.87
  C 837.97 452.87 842.63 452.68 845.06 453.82
  C 852.39 457.27 854.64 466.04 849.61 472.27
  Q 845.72 477.09 839.00 477.08
  Q 804.27 477.04 769.55 477.00
  Z"
/>
<path fill="#df932f" d="
  M 768.83 504.44
  L 768.83 548.28
  A 0.66 0.66 0.0 0 0 769.49 548.94
  Q 831.27 548.97 835.70 548.88
  Q 842.95 548.73 845.63 550.12
  C 857.41 556.25 852.47 572.81 839.62 572.89
  Q 804.36 573.11 769.77 572.98
  A 0.92 0.91 -0.0 0 0 768.85 573.89
  L 768.80 631.08
  Q 761.28 638.32 752.07 642.01
  C 747.11 644.00 746.47 639.31 745.53 635.95
  L 745.56 528.33
  Q 749.59 521.33 755.85 513.54
  Q 761.28 506.79 768.83 504.44
  Z"
/>
<path fill="#6b3eb6" d="
  M 258.58 551.44
  L 258.60 572.43
  A 0.96 0.87 -56.2 0 0 258.64 572.70
  L 258.73 573.06
  A 0.16 0.15 -27.1 0 0 258.98 573.14
  Q 259.10 573.03 259.35 572.96
  Q 259.38 637.23 259.41 701.50
  Q 259.41 706.64 260.22 711.72
  Q 262.73 727.50 275.44 737.04
  Q 284.06 743.51 294.82 744.96
  Q 294.67 746.21 292.99 745.87
  Q 293.00 745.87 293.00 745.88
  C 301.74 747.07 310.90 746.71 319.72 746.78
  A 0.13 0.11 -23.7 0 1 319.79 746.80
  Q 319.80 746.81 319.82 746.83
  A 0.02 0.02 0.0 0 1 319.81 746.87
  L 314.28 747.09
  A 1.25 1.25 0.0 0 0 313.51 747.40
  Q 303.73 756.03 296.80 766.33
  A 0.31 0.30 20.4 0 0 297.02 766.80
  Q 300.39 767.16 301.40 767.16
  Q 332.16 767.37 338.87 767.44
  Q 339.39 767.45 340.13 767.67
  A 0.09 0.09 0.0 0 1 340.12 767.84
  Q 339.94 767.87 339.89 767.89
  A 0.21 0.20 -55.6 0 0 339.96 768.28
  L 342.75 768.49
  Q 323.73 768.58 305.15 768.56
  Q 291.38 768.55 285.44 767.17
  C 256.77 760.53 236.49 736.33 236.03 706.74
  Q 235.89 698.29 236.01 669.74
  A 0.78 0.77 -90.0 0 0 235.24 668.96
  Q 190.01 668.78 167.70 668.93
  Q 161.65 668.97 159.44 667.99
  C 149.99 663.82 150.60 649.46 160.25 645.78
  Q 162.31 644.99 167.35 644.98
  Q 206.40 644.86 235.26 645.12
  A 0.80 0.79 -89.6 0 0 236.06 644.32
  L 236.06 574.08
  A 1.14 1.14 0.0 0 0 234.91 572.94
  Q 216.64 573.17 165.50 573.07
  C 148.12 573.03 148.44 549.05 165.00 549.00
  Q 200.73 548.91 235.33 549.08
  Q 235.54 549.08 235.65 549.02
  Q 235.83 548.92 235.91 548.79
  Q 236.13 549.15 236.26 549.14
  Q 237.10 549.07 237.14 548.12
  Q 237.46 540.37 237.32 532.80
  A 0.35 0.35 0.0 0 1 237.82 532.47
  Q 251.10 538.28 258.58 551.44
  Z"
/>
<path fill="#f6812e" d="
  M 768.80 631.08
  L 768.72 643.89
  A 0.99 0.99 0.0 0 0 769.71 644.88
  Q 818.94 644.90 832.69 644.82
  Q 842.47 644.76 844.10 645.36
  C 857.39 650.21 853.85 668.57 839.97 668.71
  Q 806.74 669.04 769.62 668.84
  A 0.78 0.78 0.0 0 0 768.84 669.62
  L 768.75 704.00
  C 765.21 707.91 756.24 717.02 750.08 714.09
  C 747.04 712.64 745.91 706.25 745.51 703.00
  L 745.53 635.95
  C 746.47 639.31 747.11 644.00 752.07 642.01
  Q 761.28 638.32 768.80 631.08
  Z"
/>
<path fill="#fe6c37" d="
  M 768.75 704.00
  Q 769.39 729.73 752.96 747.70
  Q 739.19 762.76 719.56 767.00
  Q 711.26 768.80 696.35 768.63
  Q 680.53 768.46 661.24 768.63
  A 0.32 0.32 0.0 0 0 660.92 768.95
  Q 660.98 807.93 660.91 841.48
  C 660.88 857.00 637.36 857.88 637.04 841.99
  Q 636.78 829.36 637.01 769.08
  A 0.47 0.46 0.0 0 0 636.54 768.62
  L 563.18 768.62
  A 0.37 0.37 0.0 0 0 562.81 768.99
  Q 562.82 804.75 562.90 840.56
  Q 562.91 845.19 561.26 847.89
  C 556.01 856.47 542.61 855.03 539.56 845.44
  C 538.72 842.79 538.91 839.62 538.91 836.61
  Q 538.92 802.53 538.98 768.55
  L 539.48 768.65
  A 0.33 0.33 0.0 0 0 539.87 768.33
  L 539.88 767.95
  A 0.52 0.51 1.1 0 0 539.37 767.43
  L 516.15 767.07
  A 0.26 0.25 19.3 0 1 515.95 766.66
  Q 525.59 754.43 538.20 747.13
  A 0.20 0.20 0.0 0 0 538.10 746.75
  L 513.58 746.37
  A 0.07 0.07 0.0 0 1 513.51 746.29
  L 513.51 746.03
  A 0.23 0.22 4.4 0 1 513.77 745.81
  Q 515.73 746.17 517.54 745.45
  Q 610.77 745.45 704.00 745.38
  C 723.98 745.36 741.05 732.36 744.79 712.27
  Q 745.30 709.53 745.51 703.00
  C 745.91 706.25 747.04 712.64 750.08 714.09
  C 756.24 717.02 765.21 707.91 768.75 704.00
  Z"
/>
<path fill="#ac4592" d="
  M 422.81 745.41
  Q 412.47 755.01 403.56 766.40
  A 0.26 0.25 19.3 0 0 403.76 766.81
  L 440.01 767.37
  A 0.49 0.49 0.0 0 1 440.44 768.07
  L 440.19 768.59
  L 366.80 768.55
  A 0.46 0.46 0.0 0 0 366.34 769.01
  Q 366.25 826.97 366.38 837.98
  Q 366.45 844.77 365.09 847.30
  C 361.71 853.53 353.43 855.21 347.60 851.18
  Q 342.54 847.69 342.57 841.00
  Q 342.73 804.75 342.75 768.49
  L 339.96 768.28
  A 0.21 0.20 -55.6 0 1 339.89 767.89
  Q 339.94 767.87 340.12 767.84
  A 0.09 0.09 0.0 0 0 340.13 767.67
  Q 339.39 767.45 338.87 767.44
  Q 332.16 767.37 301.40 767.16
  Q 300.39 767.16 297.02 766.80
  A 0.31 0.30 20.4 0 1 296.80 766.33
  Q 303.73 756.03 313.51 747.40
  A 1.25 1.25 0.0 0 1 314.28 747.09
  L 319.81 746.87
  A 0.02 0.02 0.0 0 0 319.82 746.83
  Q 319.80 746.81 319.79 746.80
  A 0.13 0.11 -23.7 0 0 319.72 746.78
  C 310.90 746.71 301.74 747.07 293.00 745.88
  Q 293.00 745.87 292.99 745.87
  Q 294.67 746.21 294.82 744.96
  Q 297.88 745.38 301.00 745.38
  Q 362.10 745.46 422.81 745.41
  Z"
/>
<path fill="#d5536b" d="
  M 517.54 745.45
  Q 515.73 746.17 513.77 745.81
  A 0.23 0.22 4.4 0 0 513.51 746.03
  L 513.51 746.29
  A 0.07 0.07 0.0 0 0 513.58 746.37
  L 538.10 746.75
  A 0.20 0.20 0.0 0 1 538.20 747.13
  Q 525.59 754.43 515.95 766.66
  A 0.26 0.25 19.3 0 0 516.15 767.07
  L 539.37 767.43
  A 0.52 0.51 1.1 0 1 539.88 767.95
  L 539.87 768.33
  A 0.33 0.33 0.0 0 1 539.48 768.65
  L 538.98 768.55
  L 465.61 768.60
  A 0.56 0.55 0.0 0 0 465.05 769.15
  Q 465.05 804.39 465.05 840.71
  Q 465.04 850.10 456.57 852.99
  C 450.35 855.11 443.69 850.86 441.64 844.84
  Q 440.95 842.80 440.96 837.10
  Q 441.07 805.18 440.99 769.25
  Q 440.99 768.29 440.19 768.59
  L 440.44 768.07
  A 0.49 0.49 0.0 0 0 440.01 767.37
  L 403.76 766.81
  A 0.26 0.25 19.3 0 1 403.56 766.40
  Q 412.47 755.01 422.81 745.41
  L 517.54 745.45
  Z"
/>
</g>
<path fill="#00498f" d="
  M 502.33 321.48
  Q 518.04 321.46 531.65 325.84
  C 565.56 336.74 591.71 366.12 597.59 401.79
  Q 598.94 409.96 598.80 427.33
  Q 598.69 439.90 598.85 452.99
  A 0.65 0.65 0.0 0 0 599.51 453.63
  Q 604.34 453.53 613.50 453.77
  C 630.47 454.22 645.00 467.39 649.46 483.24
  Q 650.99 488.69 650.94 503.06
  Q 650.80 545.98 651.09 624.93
  Q 651.15 641.60 649.58 648.24
  Q 645.59 665.15 633.39 677.36
  Q 615.67 695.08 589.74 695.21
  Q 589.56 695.21 502.78 695.32
  Q 416.01 695.42 415.83 695.42
  Q 389.90 695.35 372.14 677.68
  Q 359.91 665.50 355.88 648.60
  Q 354.29 641.96 354.31 625.29
  Q 354.41 546.34 354.16 503.42
  Q 354.08 489.05 355.60 483.60
  C 360.02 467.74 374.51 454.53 391.48 454.04
  Q 400.64 453.78 405.47 453.87
  A 0.65 0.65 0.0 0 0 406.13 453.22
  Q 406.26 440.13 406.12 427.56
  Q 405.94 410.19 407.27 402.02
  C 413.06 366.34 439.14 336.89 473.02 325.91
  Q 486.63 321.50 502.33 321.48
  Z
  M 432.55 454.07
  L 572.65 453.83
  A 1.55 1.55 0.0 0 0 574.20 452.27
  L 574.14 418.51
  A 71.90 70.71 89.9 0 0 503.31 346.73
  L 501.53 346.73
  A 71.90 70.71 89.9 0 0 430.94 418.75
  L 431.00 452.52
  A 1.55 1.55 0.0 0 0 432.55 454.07
  Z
  M 381.14 487.43
  C 378.96 491.63 379.02 496.39 379.03 501.76
  Q 379.21 595.48 379.01 630.00
  Q 378.97 637.66 380.00 642.05
  C 383.99 659.12 398.39 671.35 416.00 671.35
  Q 574.29 671.41 587.76 671.36
  C 605.51 671.28 619.88 660.70 624.49 644.05
  Q 625.91 638.91 625.90 621.28
  Q 625.85 505.37 625.82 495.27
  C 625.80 487.04 621.01 479.54 612.70 478.16
  Q 611.29 477.93 602.29 477.94
  Q 506.66 478.05 402.12 477.94
  Q 398.09 477.94 392.98 478.18
  A 6.42 6.22 33.1 0 0 391.33 478.50
  Q 384.57 480.83 381.14 487.43
  Z"
/>
<g>
<path fill="#ffffff" d="
  M 432.55 454.07
  A 1.55 1.55 0.0 0 1 431.00 452.52
  L 430.94 418.75
  A 71.90 70.71 89.9 0 1 501.53 346.73
  L 503.31 346.73
  A 71.90 70.71 89.9 0 1 574.14 418.51
  L 574.20 452.27
  A 1.55 1.55 0.0 0 1 572.65 453.83
  L 432.55 454.07
  Z"
/>
<path fill="#ffffff" d="
  M 381.14 487.43
  Q 384.57 480.83 391.33 478.50
  A 6.42 6.22 33.1 0 1 392.98 478.18
  Q 398.09 477.94 402.12 477.94
  Q 506.66 478.05 602.29 477.94
  Q 611.29 477.93 612.70 478.16
  C 621.01 479.54 625.80 487.04 625.82 495.27
  Q 625.85 505.37 625.90 621.28
  Q 625.91 638.91 624.49 644.05
  C 619.88 660.70 605.51 671.28 587.76 671.36
  Q 574.29 671.41 416.00 671.35
  C 398.39 671.35 383.99 659.12 380.00 642.05
  Q 378.97 637.66 379.01 630.00
  Q 379.21 595.48 379.03 501.76
  C 379.02 496.39 378.96 491.63 381.14 487.43
  Z
  M 586.78 509.80
  A 3.83 3.83 0.0 0 0 582.95 505.97
  L 565.25 505.97
  A 3.83 3.83 0.0 0 0 561.42 509.80
  L 561.42 632.02
  A 3.83 3.83 0.0 0 0 565.25 635.85
  L 582.95 635.85
  A 3.83 3.83 0.0 0 0 586.78 632.02
  L 586.78 509.80
  Z
  M 508.63 608.29
  Q 511.42 615.42 515.36 627.98
  C 516.80 632.58 518.39 635.92 523.52 635.94
  Q 537.16 636.01 539.49 635.92
  C 542.73 635.80 546.23 634.99 544.73 631.05
  Q 527.28 585.34 500.36 515.48
  C 498.42 510.44 497.84 506.97 492.49 506.85
  Q 487.13 506.74 471.99 506.86
  C 468.81 506.88 466.80 507.79 465.65 510.69
  Q 460.48 523.76 456.07 534.98
  Q 439.71 576.68 419.00 630.04
  Q 417.76 633.23 418.30 634.17
  Q 419.26 635.87 422.10 635.90
  Q 429.72 635.97 439.54 635.95
  C 445.75 635.93 446.86 632.00 448.93 626.45
  Q 451.69 619.04 455.11 608.77
  A 2.61 2.61 0.0 0 1 457.59 606.98
  L 506.70 606.98
  A 2.08 2.08 0.0 0 1 508.63 608.29
  Z"
/>
</g>
<g>
<rect fill="#00498f" x="561.42" y="505.97" width="25.36" height="129.88" rx="3.83"/>
<path fill="#00498f" d="
  M 508.63 608.29
  A 2.08 2.08 0.0 0 0 506.70 606.98
  L 457.59 606.98
  A 2.61 2.61 0.0 0 0 455.11 608.77
  Q 451.69 619.04 448.93 626.45
  C 446.86 632.00 445.75 635.93 439.54 635.95
  Q 429.72 635.97 422.10 635.90
  Q 419.26 635.87 418.30 634.17
  Q 417.76 633.23 419.00 630.04
  Q 439.71 576.68 456.07 534.98
  Q 460.48 523.76 465.65 510.69
  C 466.80 507.79 468.81 506.88 471.99 506.86
  Q 487.13 506.74 492.49 506.85
  C 497.84 506.97 498.42 510.44 500.36 515.48
  Q 527.28 585.34 544.73 631.05
  C 546.23 634.99 542.73 635.80 539.49 635.92
  Q 537.16 636.01 523.52 635.94
  C 518.39 635.92 516.80 632.58 515.36 627.98
  Q 511.42 615.42 508.63 608.29
  Z
  M 463.53 582.61
  A 1.55 1.55 0.0 0 0 464.98 584.68
  L 498.81 584.80
  A 1.55 1.55 0.0 0 0 500.28 582.74
  L 483.54 534.28
  A 1.55 1.55 0.0 0 0 480.61 534.27
  L 463.53 582.61
  Z"
/>
</g>
<path fill="#ffffff" d="
  M 463.53 582.61
  L 480.61 534.27
  A 1.55 1.55 0.0 0 1 483.54 534.28
  L 500.28 582.74
  A 1.55 1.55 0.0 0 1 498.81 584.80
  L 464.98 584.68
  A 1.55 1.55 0.0 0 1 463.53 582.61
  Z"
/>
</svg>
